<svg xmlns="http://www.w3.org/2000/svg" xmlns:xlink="http://www.w3.org/1999/xlink" width="379" height="127" viewBox="0 0 379 127">
  <defs>
    <linearGradient id="linear-gradient" x1="0.5" x2="0.5" y2="1" gradientUnits="objectBoundingBox">
      <stop offset="0.684" stop-color="#878786"/>
      <stop offset="0.873" stop-color="#343433"/>
      <stop offset="1"/>
    </linearGradient>
    <linearGradient id="linear-gradient-2" x1="0.012" y1="1.024" x2="0.989" y2="0.297" xlink:href="#linear-gradient"/>
    <linearGradient id="linear-gradient-3" x1="0.5" x2="0.5" y2="1" gradientUnits="objectBoundingBox">
      <stop offset="0" stop-color="#878786"/>
      <stop offset="0.598" stop-color="#343433"/>
      <stop offset="1"/>
    </linearGradient>
    <linearGradient id="linear-gradient-4" x1="0.171" y1="0.843" x2="0.797" y2="-0.102" gradientUnits="objectBoundingBox">
      <stop offset="0" stop-color="#373735"/>
      <stop offset="0.026" stop-color="#4a4a48"/>
      <stop offset="0.082" stop-color="#6c6c6b"/>
      <stop offset="0.134" stop-color="#858584"/>
      <stop offset="0.181" stop-color="#949493"/>
      <stop offset="0.22" stop-color="#999998"/>
      <stop offset="0.303" stop-color="#7f7f7e"/>
      <stop offset="0.464" stop-color="#525251"/>
      <stop offset="0.619" stop-color="#2e2e2e"/>
      <stop offset="0.764" stop-color="#151515"/>
      <stop offset="0.895" stop-color="#050505"/>
      <stop offset="1"/>
    </linearGradient>
    <clipPath id="clip-Logo">
      <rect width="379" height="127"/>
    </clipPath>
  </defs>
  <g id="Logo" clip-path="url(#clip-Logo)">
    <rect width="379" height="127" fill="#fff"/>
    <g id="Group_68" data-name="Group 68" transform="translate(555 -164)">
      <g id="Text" transform="translate(-456.494 228.092)">
        <path id="Path_1" data-name="Path 1" d="M756.131,590.551h-.643a8.3,8.3,0,0,0-.744-1.519,7,7,0,0,0-1.345-1.592,7.1,7.1,0,0,0-2.016-1.242,7.2,7.2,0,0,0-2.791-.5,6.892,6.892,0,0,0-2.544.439,5.051,5.051,0,0,0-1.855,1.226,5.178,5.178,0,0,0-1.125,1.87,7.217,7.217,0,0,0-.381,2.4,7.525,7.525,0,0,0,1.183,4.02,23.232,23.232,0,0,0,2.968,3.785q1.783,1.87,3.858,3.74a48.674,48.674,0,0,1,3.858,3.886,22.338,22.338,0,0,1,2.968,4.224,9.883,9.883,0,0,1,1.184,4.749,11.646,11.646,0,0,1-.659,3.813,9.855,9.855,0,0,1-2.031,3.434,10.217,10.217,0,0,1-3.535,2.47,12.721,12.721,0,0,1-5.143.949,15.877,15.877,0,0,1-3.172-.308,20.637,20.637,0,0,1-2.776-.76,18.012,18.012,0,0,1-2.279-.979,16.484,16.484,0,0,1-1.65-.964l.671-6.46h.732a9.362,9.362,0,0,0,1.052,2.617,9.08,9.08,0,0,0,1.8,2.193,8.55,8.55,0,0,0,2.44,1.519,7.756,7.756,0,0,0,3.01.57,7.424,7.424,0,0,0,2.675-.454,6.083,6.083,0,0,0,2.031-1.257,5.387,5.387,0,0,0,1.3-1.915,6.344,6.344,0,0,0,.454-2.425,8.554,8.554,0,0,0-.671-3.4,13.45,13.45,0,0,0-1.769-2.968,24.79,24.79,0,0,0-2.483-2.718q-1.389-1.313-2.849-2.645T743,603.615a21.784,21.784,0,0,1-2.483-3,15.36,15.36,0,0,1-1.769-3.419,11.52,11.52,0,0,1-.671-4.017,9.506,9.506,0,0,1,.891-4.164,9.991,9.991,0,0,1,2.367-3.172,10.567,10.567,0,0,1,3.346-2.016,10.919,10.919,0,0,1,3.858-.7,14.367,14.367,0,0,1,2.69.235,17.774,17.774,0,0,1,2.206.555c.654.214,1.221.429,1.711.643s.886.391,1.2.525Z" transform="translate(-737.46 -582.106)" fill="#1e1e1e"/>
        <path id="Path_2" data-name="Path 2" d="M850.377,632.417a4.937,4.937,0,0,0,1.739-.32,7.641,7.641,0,0,0,1.665-.876,12.659,12.659,0,0,0,1.549-1.272,16.928,16.928,0,0,0,1.388-1.5l.293.146-1.9,4.706-.863.424a8.491,8.491,0,0,1-1.226.467,13.365,13.365,0,0,1-1.681.381,14.184,14.184,0,0,1-2.279.162,8.368,8.368,0,0,1-6.094-2.12q-2.176-2.12-2.178-6.619V606.5l-4.911.177V604.1c.6.04,1.325.068,2.163.088s1.754.03,2.748.03q-.03-2.074-.1-3.667c-.048-1.062-.109-1.989-.177-2.776s-.151-1.456-.247-2-.194-1-.293-1.373v-.116h6.75v.116a11.093,11.093,0,0,0-.32,1.373c-.1.545-.179,1.209-.247,1.988s-.126,1.7-.174,2.761-.083,2.294-.1,3.7q1.84-.03,3.609-.073t3.215-.116c.964-.048,1.782-.1,2.455-.146s1.115-.093,1.33-.131l-.525,2.98q-1.491-.03-3.127-.088-1.4-.057-3.215-.088t-3.74-.058V626.61a9.074,9.074,0,0,0,.394,2.937,4.734,4.734,0,0,0,1.022,1.769,3.225,3.225,0,0,0,1.433.876A6.227,6.227,0,0,0,850.377,632.417Z" transform="translate(-811.044 -590.449)" fill="#1e1e1e"/>
        <path id="Path_3" data-name="Path 3" d="M937.255,663.187l-10.288-22.5q-.556-1.287-1.2-2.47c-.429-.79-.833-1.494-1.214-2.12s-.717-1.143-1.009-1.565-.487-.686-.585-.8v-.116h7.656v.116a1.7,1.7,0,0,0-.088.439,5.166,5.166,0,0,0-.03.525,8.245,8.245,0,0,0,.278,2,16.1,16.1,0,0,0,1.037,2.733l8.067,17.535,7.366-17.3q.466-1.083.949-2.367a7.379,7.379,0,0,0,.482-2.6,2.893,2.893,0,0,0-.058-.628,1.255,1.255,0,0,0-.116-.336v-.116h5.261v.116a10.841,10.841,0,0,0-1.33,1.973,36.146,36.146,0,0,0-1.711,3.55l-13.939,33.2q-.469,1.083-.949,2.367a7.379,7.379,0,0,0-.482,2.6,2.893,2.893,0,0,0,.058.628,1.137,1.137,0,0,0,.116.336v.116h-5.466v-.116a10.114,10.114,0,0,0,1.36-1.943,34.2,34.2,0,0,0,1.711-3.492Z" transform="translate(-876.15 -619.847)" fill="#1e1e1e"/>
        <path id="Path_4" data-name="Path 4" d="M1059.455,590.5q0-2.483-.073-4.34t-.174-3.2q-.1-1.344-.262-2.251t-.336-1.519v-.116h6.75v.116a13.337,13.337,0,0,0-.32,1.519c-.1.6-.184,1.355-.262,2.251s-.136,1.963-.174,3.2-.058,2.685-.058,4.34v20.839q0,2.483.058,4.34c.038,1.237.1,2.3.174,3.2s.167,1.648.262,2.251a13.894,13.894,0,0,0,.32,1.519v.116h-6.75v-.116a15.458,15.458,0,0,0,.336-1.519c.106-.6.194-1.355.262-2.251s.126-1.963.174-3.2.073-2.685.073-4.34Z" transform="translate(-977.57 -579.07)" fill="#1e1e1e"/>
        <path id="Path_5" data-name="Path 5" d="M1116.665,609.54q0-2.483-.073-4.34t-.174-3.2q-.1-1.344-.262-2.251t-.336-1.519v-.116h6.75v.116a13.364,13.364,0,0,0-.32,1.519c-.1.6-.184,1.355-.262,2.251s-.136,1.963-.174,3.2-.058,2.685-.058,4.34v7.073q0,2.483.058,4.34c.038,1.236.1,2.3.174,3.2s.167,1.648.262,2.251a13.942,13.942,0,0,0,.32,1.519v.116h-6.75v-.116a15.485,15.485,0,0,0,.336-1.519c.106-.6.194-1.355.262-2.251s.126-1.963.174-3.2.073-2.685.073-4.34Zm-.613-20.283a3.036,3.036,0,0,1,.247-1.214,3.253,3.253,0,0,1,.659-.994,2.98,2.98,0,0,1,.979-.671,3.241,3.241,0,0,1,2.483,0,3.241,3.241,0,0,1,.994.671,3.153,3.153,0,0,1,.671.994,3.119,3.119,0,0,1-2.91,4.371,3.091,3.091,0,0,1-1.241-.247,3.017,3.017,0,0,1-.979-.671,3.346,3.346,0,0,1-.659-.994A3.154,3.154,0,0,1,1116.052,589.257Z" transform="translate(-1020.343 -584.348)" fill="#1e1e1e"/>
        <path id="Path_6" data-name="Path 6" d="M1181.438,638.094l-.409.058a6.512,6.512,0,0,0-.659-1.431,6.01,6.01,0,0,0-2.892-2.47,5.948,5.948,0,0,0-2.324-.424,5.518,5.518,0,0,0-1.711.262,4.127,4.127,0,0,0-1.4.775,3.645,3.645,0,0,0-.949,1.272,4.2,4.2,0,0,0-.351,1.782,4.773,4.773,0,0,0,.891,2.733,16.028,16.028,0,0,0,2.236,2.571q1.344,1.272,2.907,2.556a33.736,33.736,0,0,1,2.907,2.688,14.787,14.787,0,0,1,2.236,3,6.929,6.929,0,0,1,.891,3.434,8.336,8.336,0,0,1-.525,2.907,7.061,7.061,0,0,1-1.623,2.529,8.108,8.108,0,0,1-2.806,1.8,10.947,10.947,0,0,1-4.078.686,12.431,12.431,0,0,1-2.617-.262,14.216,14.216,0,0,1-2.221-.659,12.1,12.1,0,0,1-1.812-.876c-.535-.32-1.009-.628-1.418-.921l.293-5.552h.467a10.091,10.091,0,0,0,.876,2.513,6.987,6.987,0,0,0,1.446,1.943,6.446,6.446,0,0,0,1.973,1.257,6.343,6.343,0,0,0,2.425.452,4.8,4.8,0,0,0,3.434-1.2,4.1,4.1,0,0,0,1.272-3.127,5.044,5.044,0,0,0-.863-2.849,13.445,13.445,0,0,0-2.178-2.5q-1.313-1.2-2.821-2.4a29.621,29.621,0,0,1-2.821-2.556,13.22,13.22,0,0,1-2.178-2.98,7.753,7.753,0,0,1-.863-3.7,7.585,7.585,0,0,1,.628-3.111,7.062,7.062,0,0,1,1.754-2.425,8.011,8.011,0,0,1,2.675-1.565,9.958,9.958,0,0,1,3.389-.555,13.649,13.649,0,0,1,4.048.512,14.246,14.246,0,0,1,2.47.979Z" transform="translate(-1057.644 -618.457)" fill="#1e1e1e"/>
        <path id="Path_7" data-name="Path 7" d="M1258.627,632.417a4.937,4.937,0,0,0,1.739-.32,7.644,7.644,0,0,0,1.665-.876,12.655,12.655,0,0,0,1.549-1.272,16.926,16.926,0,0,0,1.388-1.5l.293.146-1.9,4.706-.863.424a8.5,8.5,0,0,1-1.226.467,13.372,13.372,0,0,1-1.681.381,14.183,14.183,0,0,1-2.279.162,8.368,8.368,0,0,1-6.094-2.12q-2.177-2.12-2.178-6.619V606.5l-4.911.177V604.1c.6.04,1.325.068,2.162.088s1.754.03,2.748.03q-.03-2.074-.1-3.667t-.174-2.776q-.1-1.185-.247-2c-.1-.545-.194-1-.293-1.373v-.116h6.75v.116a11.136,11.136,0,0,0-.321,1.373c-.1.545-.179,1.209-.247,1.988s-.126,1.7-.177,2.761-.083,2.294-.1,3.7q1.843-.03,3.609-.073t3.215-.116c.964-.048,1.781-.1,2.455-.146s1.115-.093,1.33-.131l-.525,2.98q-1.491-.03-3.127-.088-1.4-.057-3.215-.088t-3.74-.058V626.61a9.074,9.074,0,0,0,.394,2.937,4.734,4.734,0,0,0,1.022,1.769,3.227,3.227,0,0,0,1.433.876A6.227,6.227,0,0,0,1258.627,632.417Z" transform="translate(-1116.275 -590.449)" fill="#1e1e1e"/>
        <path id="Path_8" data-name="Path 8" d="M1349.41,585.091c.389.04.8.078,1.229.116.368.04.785.063,1.241.073s.931.015,1.418.015a23.224,23.224,0,0,0,3.084-.278,36.294,36.294,0,0,1,4.953-.278,15.9,15.9,0,0,1,5.188.818,11.859,11.859,0,0,1,4.136,2.4,10.958,10.958,0,0,1,2.733,3.843,12.868,12.868,0,0,1,.979,5.158,13.825,13.825,0,0,1-1.549,6.722,12.867,12.867,0,0,1-4.151,4.588,15.717,15.717,0,0,1-5.991,2.382,21.363,21.363,0,0,1-7.1.073v4.853q0,2.483.073,4.34t.177,3.2c.068.9.156,1.648.262,2.251a15.454,15.454,0,0,0,.336,1.519V627h-7.015v-.116a15.454,15.454,0,0,0,.336-1.519c.106-.6.2-1.355.277-2.251s.136-1.963.174-3.2.058-2.685.058-4.34V596.547q0-2.483-.058-4.34t-.174-3.215q-.117-1.359-.277-2.266a15.458,15.458,0,0,0-.336-1.519v-.116Zm6.167,23.352a14.725,14.725,0,0,0,5.246.1,8.8,8.8,0,0,0,4.09-1.812,9.064,9.064,0,0,0,2.66-3.755,15.565,15.565,0,0,0,.949-5.786,17.435,17.435,0,0,0-.5-4.31,9.688,9.688,0,0,0-1.476-3.3,6.7,6.7,0,0,0-2.47-2.1,7.681,7.681,0,0,0-3.477-.744,20.465,20.465,0,0,0-2.193.1c-.623.068-1.151.141-1.577.22a9.145,9.145,0,0,0-1.257.32v21.068Z" transform="translate(-1194.988 -583.309)" fill="#4f4f4e"/>
        <path id="Path_9" data-name="Path 9" d="M1462.91,653.191a8.062,8.062,0,0,1,.949-4,9.338,9.338,0,0,1,2.529-2.894,13.8,13.8,0,0,1,3.6-1.943,27.057,27.057,0,0,1,4.179-1.168,36.991,36.991,0,0,1,4.267-.585q2.1-.159,3.858-.189v-1.491a10,10,0,0,0-.5-3.331,6.205,6.205,0,0,0-1.4-2.324,5.663,5.663,0,0,0-2.178-1.373,8.249,8.249,0,0,0-2.791-.454,12.067,12.067,0,0,0-2.074.177,11.752,11.752,0,0,0-2.12.585,15.38,15.38,0,0,0-2.309,1.11,24.216,24.216,0,0,0-2.614,1.782l-.293-.174,1.986-4.121a14.928,14.928,0,0,1,1.9-.717,17.925,17.925,0,0,1,3.874-.7q1.007-.072,2.12-.073a16.271,16.271,0,0,1,5.246.744,9.751,9.751,0,0,1,3.566,2.046,7.848,7.848,0,0,1,2.031,3.041,10.65,10.65,0,0,1,.643,3.727v9.529q0,2.483.073,4.34t.174,3.2c.068.9.157,1.648.263,2.251a15.389,15.389,0,0,0,.336,1.519v.116h-6.46V661.7a5.848,5.848,0,0,0,.22-1.052c.048-.389.091-.858.131-1.4a15.147,15.147,0,0,1-1.446,1.083,11.553,11.553,0,0,1-1.9,1.009,13.092,13.092,0,0,1-2.367.732,13.725,13.725,0,0,1-2.849.278q-5.084,0-7.861-2.382A8.442,8.442,0,0,1,1462.91,653.191Zm19.377-8.506a50.169,50.169,0,0,0-5.115.308,13.975,13.975,0,0,0-4.34,1.153,8.1,8.1,0,0,0-2.412,12.07,6.258,6.258,0,0,0,4.764,1.812,7.874,7.874,0,0,0,2.556-.394,8.619,8.619,0,0,0,2.047-.994,7.408,7.408,0,0,0,1.5-1.315,6.416,6.416,0,0,0,.936-1.388c.038-.739.058-1.565.058-2.47v-8.782Z" transform="translate(-1279.847 -618.12)" fill="#4f4f4e"/>
        <path id="Path_10" data-name="Path 10" d="M1598.85,675.16a13.593,13.593,0,0,0,4-.512,7.62,7.62,0,0,0,2.7-1.418,6.093,6.093,0,0,0,1.638-2.178,12.309,12.309,0,0,0,.848-2.791,21,21,0,0,0,.321-3.245q.045-1.726.043-3.566v-.961a16.327,16.327,0,0,1-3.45,1.3,19.184,19.184,0,0,1-10.874-.543,13.5,13.5,0,0,1-4.837-3.1,13.665,13.665,0,0,1-3.084-4.9,18.28,18.28,0,0,1-1.083-6.473,17.28,17.28,0,0,1,1.068-6.137,14.634,14.634,0,0,1,3.01-4.911,13.923,13.923,0,0,1,4.646-3.258,14.73,14.73,0,0,1,5.976-1.183,12.783,12.783,0,0,1,4.749.863,14.322,14.322,0,0,1,1.9.906q.889.511,1.739,1.1l-.293-2.163v-.116h6.458v.116a15.454,15.454,0,0,0-.336,1.519c-.109.6-.194,1.355-.262,2.251s-.126,1.963-.177,3.2-.073,2.685-.073,4.34v19.875a19.393,19.393,0,0,1-.717,5.246,11.739,11.739,0,0,1-2.425,4.545,12.092,12.092,0,0,1-4.514,3.185,17.81,17.81,0,0,1-6.985,1.2,16.181,16.181,0,0,1-2.952-.278,28.626,28.626,0,0,1-2.834-.671,20.657,20.657,0,0,1-2.425-.863q-1.083-.469-1.724-.818l-.906-5.612.467-.116a8.667,8.667,0,0,0,1.915,2.675,12.273,12.273,0,0,0,2.645,1.928,12.932,12.932,0,0,0,2.968,1.168A11.457,11.457,0,0,0,1598.85,675.16Zm2.864-14.964a9.962,9.962,0,0,0,3.813-.7,11.578,11.578,0,0,0,2.879-1.638V643.3q0-1.635-.03-2.968c-.02-.886-.03-1.691-.03-2.41a9.541,9.541,0,0,0-1.623-1.915,10.372,10.372,0,0,0-1.958-1.4,10.051,10.051,0,0,0-2.12-.876,7.791,7.791,0,0,0-2.132-.308,9.5,9.5,0,0,0-4,.818,8.3,8.3,0,0,0-3.026,2.352,10.77,10.77,0,0,0-1.9,3.74,17.525,17.525,0,0,0-.659,5.012,23.492,23.492,0,0,0,.7,5.875,14.961,14.961,0,0,0,2.059,4.719,9.832,9.832,0,0,0,3.376,3.127A9.344,9.344,0,0,0,1601.715,660.2Z" transform="translate(-1371.188 -618.113)" fill="#4f4f4e"/>
        <path id="Path_11" data-name="Path 11" d="M1739.159,662.518a17.793,17.793,0,0,1-6.079-1.022,14.15,14.15,0,0,1-4.938-3,13.955,13.955,0,0,1-3.318-4.88,17.159,17.159,0,0,1-1.214-6.649,16.583,16.583,0,0,1,1.11-6.122,15.113,15.113,0,0,1,3.068-4.9,14.188,14.188,0,0,1,4.573-3.245,13.69,13.69,0,0,1,5.655-1.168,14.784,14.784,0,0,1,5.582,1.037,12.631,12.631,0,0,1,4.456,3.01,14.2,14.2,0,0,1,2.98,4.88,20.063,20.063,0,0,1,1.183,6.619q-3.3-.057-6.6-.088t-6.869-.03q-2.544,0-4.953.03t-4.34.088a22.594,22.594,0,0,0,.949,5.494,13.227,13.227,0,0,0,2.132,4.194,9.222,9.222,0,0,0,3.3,2.675,10.014,10.014,0,0,0,4.4.936,12.606,12.606,0,0,0,3.2-.394,11.19,11.19,0,0,0,2.733-1.1,10.6,10.6,0,0,0,3.831-3.712l.351.174-2.163,5.2a18.071,18.071,0,0,1-3.77,1.388A21.265,21.265,0,0,1,1739.159,662.518Zm-3.886-17.828q2.922,0,5.859-.015t5.335-.1a19.114,19.114,0,0,0-.994-4.56,11.687,11.687,0,0,0-1.87-3.419,7.929,7.929,0,0,0-2.69-2.163,7.648,7.648,0,0,0-3.419-.76,6.588,6.588,0,0,0-3.114.744,7.376,7.376,0,0,0-2.47,2.147,11.432,11.432,0,0,0-1.7,3.434,18.069,18.069,0,0,0-.76,4.633c.876.04,1.8.058,2.776.058S1734.221,644.69,1735.273,644.69Z" transform="translate(-1474.761 -618.299)" fill="#4f4f4e"/>
      </g>
      <g id="Image" transform="translate(-552 167)">
        <path id="Path_12" data-name="Path 12" d="M566.9,462.449a3.32,3.32,0,0,0,.055-.389Z" transform="translate(-514.433 -430.494)" fill="#8eaccb"/>
        <path id="Path_13" data-name="Path 13" d="M566.9,462.449a3.32,3.32,0,0,0,.055-.389Z" transform="translate(-514.433 -430.494)" fill="none"/>
        <path id="Path_14" data-name="Path 14" d="M566.69,463.845c.008-.005.013-.013.02-.018l.033-.227C566.728,463.671,566.71,463.754,566.69,463.845Z" transform="translate(-514.276 -431.646)" fill="none"/>
        <path id="Path_15" data-name="Path 15" d="M619.025,770.386l-8.865-1.476A50.422,50.422,0,0,0,619.025,770.386Z" transform="translate(-546.777 -659.913)" fill="#8eaccb" opacity="0.55"/>
        <path id="Path_16" data-name="Path 16" d="M600.272,336.97s25.4,23.168,6.291,46.734c4.338,10.543.209,23.332-7.278,36.12-11.837,20.22,8.878,27.619,8.878,27.619s-16.768-12.824,9.864-41.922S620.492,341.409,600.272,336.97Z" transform="translate(-535.915 -336.97)" fill="url(#linear-gradient)"/>
        <path id="Path_17" data-name="Path 17" d="M383.886,380.371c17.664-3.757,25.012-8.946,27.51-11.2.02-.091.038-.174.053-.245l.056-.389a3.325,3.325,0,0,1-.056.389l-.033.227a8.977,8.977,0,0,0,1.075-1.11c9.243,4.169,14.621,9.536,17.142,15.663,19.11-23.566-6.291-46.734-6.291-46.734s3.452,12.824-28.606,20.22c-20.119,4.643-37.127,21.719-35.666,40.133C361.445,391.264,367.789,383.795,383.886,380.371Z" transform="translate(-358.983 -336.97)" fill="url(#linear-gradient-2)"/>
        <path id="Path_18" data-name="Path 18" d="M509.281,558.3c7.487-12.789,11.615-25.578,7.278-36.12a54.374,54.374,0,0,1-11.716,10.475c-4.239,2.9-26.35,23.168-29.592,25.646L489.058,573.1s6.844,7.858,20.233,11.345l8.865,1.476S497.446,578.521,509.281,558.3Z" transform="translate(-445.911 -475.443)" fill="url(#linear-gradient-3)"/>
        <path id="Path_19" data-name="Path 19" d="M553.946,460.1a8.734,8.734,0,0,1-1.075,1.11L548.18,494.3c3.243-2.478,6.95-5.16,11.191-8.06a54.5,54.5,0,0,0,11.716-10.475C568.564,469.639,563.189,464.269,553.946,460.1Z" transform="translate(-500.437 -429.029)" fill="#1e1e1e"/>
        <path id="Path_20" data-name="Path 20" d="M384.645,524.59s-7.4-19.728,16.276-27.619c0,0-16.276-7.891-26.138,3.452,0,0-3.947-10.356,16.276-18.742,17.1-7.091,20.092-14.886,20.606-17.122-2.5,2.258-9.849,7.444-27.511,11.2-16.1,3.424-22.441,10.894-24.815,16.955C360.2,503.643,367.566,515.041,384.645,524.59Z" transform="translate(-359.25 -432.363)" fill="url(#linear-gradient-4)"/>
        <path id="Path_21" data-name="Path 21" d="M436.737,510.733l-.124.207a3.724,3.724,0,0,1,4.164-1.216c3.013.8,13.6,4.938,12.435-1.474-.356-1.782-1.07-2.624.495-4.106,1.042-.989,2.382-1.181,1.373-2.821-.5-.82-.368-1.272.628-1.84,1.141-.724.891-1.133.189-2.486-1.807-3.255,1.1-3.828,2.587-4.979,1.4-1.118.939-2.357-.028-3.611-.56-.7-1.03-1.428-1.59-2.127a14.651,14.651,0,0,1-2.983-6.442l2.965-1.5-3.134-.048c.232-6.72,1.514-10.52-2.72-18.194l-.293-.235s-4.721,8.731-25.247,17.942-14.068,23.236-14.068,23.236,2.433-15.014,25.974-9.137l-.156.371c-3.836,1.638-23.887,10.906-14.777,28.575a27.244,27.244,0,0,0,3.959,2.962,87.282,87.282,0,0,0,15.968,8.05l8.739,3.331,9.082,2.67C451.3,535.152,428.47,522.31,436.737,510.733Z" transform="translate(-397.442 -428.849)" fill="#fff"/>
      </g>
    </g>
  </g>
</svg>
